<svg width="84" height="84" viewBox="0 0 84 84" fill="none" xmlns="http://www.w3.org/2000/svg">
<path d="M73.5 31.5C69.65 31.5 66.5 34.65 66.5 38.5V52.5H17.5V38.5C17.5 34.65 14.35 31.5 10.5 31.5C6.65 31.5 3.5 34.65 3.5 38.5V56C3.5 61.775 8.225 66.5 14 66.5V70C14 71.925 15.575 73.5 17.5 73.5C19.425 73.5 21 71.925 21 70V66.5H63V70C63 71.925 64.575 73.5 66.5 73.5C68.425 73.5 70 71.925 70 70V66.5C75.775 66.5 80.5 61.775 80.5 56V38.5C80.5 34.65 77.35 31.5 73.5 31.5Z" fill="#EA6D27"/>
<path d="M24 38.5V45.5H59V38.5C59 31.99 63.48 26.565 69.5 24.99V21C69.5 15.225 64.775 10.5 59 10.5H24C18.225 10.5 13.5 15.225 13.5 21V24.99C19.52 26.565 24 31.99 24 38.5Z" fill="#EA6D27"/>
</svg>
