<svg width="84" height="84" viewBox="0 0 84 84" fill="none" xmlns="http://www.w3.org/2000/svg">
<path d="M66.8439 66.507V73.5C66.8438 74.3573 66.5291 75.1847 65.9594 75.8253C65.3898 76.4659 64.6048 76.8752 63.7534 76.9755L63.3439 77H21.3439C20.4157 77 19.5255 76.6313 18.8691 75.9749C18.2127 75.3185 17.8439 74.4283 17.8439 73.5V66.521C17.8439 65.5927 18.2127 64.7025 18.8691 64.0461C19.5255 63.3897 20.4157 63.021 21.3439 63.021L63.3439 63.007C64.2722 63.007 65.1624 63.3757 65.8188 64.0321C66.4752 64.6885 66.8439 65.5787 66.8439 66.507ZM42.3439 7C45.6764 6.99937 48.9398 7.95027 51.7504 9.74089C54.561 11.5315 56.8018 14.0874 58.2094 17.108L58.4194 17.5875L58.8954 17.556C62.7396 17.3821 66.5338 18.4801 69.691 20.68C72.8482 22.8799 75.1923 26.0591 76.3605 29.7255L76.5809 30.471C77.656 34.4393 77.2995 38.6594 75.5741 42.3911C73.8487 46.1229 70.8645 49.128 67.145 50.8795L66.8405 51.009V56.007C66.8405 56.9353 66.4717 57.8255 65.8153 58.4819C65.1589 59.1382 64.2687 59.507 63.3405 59.507L21.3404 59.521C20.4832 59.5209 19.6558 59.2062 19.0151 58.6365C18.3745 58.0668 17.9652 57.2819 17.8649 56.4305L17.8404 56.021V51.0055L17.4099 50.813C15.2562 49.7765 13.3377 48.3098 11.7726 46.5033C10.2075 44.6968 9.02908 42.5889 8.30995 40.3095L8.08595 39.529C7.37066 36.8348 7.30933 34.0087 7.90706 31.286C8.50479 28.5633 9.74429 26.0227 11.5224 23.8759C13.3004 21.7291 15.5656 20.038 18.1294 18.9436C20.6931 17.8492 23.4811 17.3831 26.2614 17.584L26.4924 17.087C27.8448 14.1947 29.9627 11.7275 32.6168 9.95258C35.2708 8.17766 38.3599 7.16266 41.5494 7.0175L42.3439 7Z" fill="#EA6D27"/>
</svg>
