<svg width="84" height="84" viewBox="0 0 84 84" fill="none" xmlns="http://www.w3.org/2000/svg">
<path d="M26.6249 8.75C26.6249 8.05381 26.3483 7.38613 25.856 6.89384C25.3637 6.40156 24.6961 6.125 23.9999 6.125C23.3037 6.125 22.636 6.40156 22.1437 6.89384C21.6514 7.38613 21.3749 8.05381 21.3749 8.75V14.28C16.3349 14.6825 13.0309 15.6695 10.6019 18.102C8.16937 20.531 7.18237 23.8385 6.77637 28.875H76.2234C75.8174 23.835 74.8304 20.531 72.3979 18.102C69.9689 15.6695 66.6614 14.6825 61.6249 14.2765V8.75C61.6249 8.05381 61.3483 7.38613 60.856 6.89384C60.3637 6.40156 59.6961 6.125 58.9999 6.125C58.3037 6.125 57.636 6.40156 57.1437 6.89384C56.6514 7.38613 56.3749 8.05381 56.3749 8.75V14.0455C54.0474 14 51.4364 14 48.4999 14H34.4999C31.5634 14 28.9524 14 26.6249 14.0455V8.75Z" fill="#EA6D27"/>
<path fill-rule="evenodd" clip-rule="evenodd" d="M6.5 42C6.5 39.0635 6.5 36.4525 6.5455 34.125H76.4545C76.5 36.4525 76.5 39.0635 76.5 42V49C76.5 62.1985 76.5 68.7995 72.398 72.898C68.296 76.9965 61.6985 77 48.5 77H34.5C21.3015 77 14.7005 77 10.602 72.898C6.5035 68.796 6.5 62.1985 6.5 49V42ZM59 49C59.9283 49 60.8185 48.6313 61.4749 47.9749C62.1313 47.3185 62.5 46.4283 62.5 45.5C62.5 44.5717 62.1313 43.6815 61.4749 43.0251C60.8185 42.3687 59.9283 42 59 42C58.0717 42 57.1815 42.3687 56.5251 43.0251C55.8687 43.6815 55.5 44.5717 55.5 45.5C55.5 46.4283 55.8687 47.3185 56.5251 47.9749C57.1815 48.6313 58.0717 49 59 49ZM59 63C59.9283 63 60.8185 62.6313 61.4749 61.9749C62.1313 61.3185 62.5 60.4283 62.5 59.5C62.5 58.5717 62.1313 57.6815 61.4749 57.0251C60.8185 56.3687 59.9283 56 59 56C58.0717 56 57.1815 56.3687 56.5251 57.0251C55.8687 57.6815 55.5 58.5717 55.5 59.5C55.5 60.4283 55.8687 61.3185 56.5251 61.9749C57.1815 62.6313 58.0717 63 59 63ZM45 45.5C45 46.4283 44.6312 47.3185 43.9749 47.9749C43.3185 48.6313 42.4283 49 41.5 49C40.5717 49 39.6815 48.6313 39.0251 47.9749C38.3687 47.3185 38 46.4283 38 45.5C38 44.5717 38.3687 43.6815 39.0251 43.0251C39.6815 42.3687 40.5717 42 41.5 42C42.4283 42 43.3185 42.3687 43.9749 43.0251C44.6312 43.6815 45 44.5717 45 45.5ZM45 59.5C45 60.4283 44.6312 61.3185 43.9749 61.9749C43.3185 62.6313 42.4283 63 41.5 63C40.5717 63 39.6815 62.6313 39.0251 61.9749C38.3687 61.3185 38 60.4283 38 59.5C38 58.5717 38.3687 57.6815 39.0251 57.0251C39.6815 56.3687 40.5717 56 41.5 56C42.4283 56 43.3185 56.3687 43.9749 57.0251C44.6312 57.6815 45 58.5717 45 59.5ZM24 49C24.9283 49 25.8185 48.6313 26.4749 47.9749C27.1313 47.3185 27.5 46.4283 27.5 45.5C27.5 44.5717 27.1313 43.6815 26.4749 43.0251C25.8185 42.3687 24.9283 42 24 42C23.0717 42 22.1815 42.3687 21.5251 43.0251C20.8687 43.6815 20.5 44.5717 20.5 45.5C20.5 46.4283 20.8687 47.3185 21.5251 47.9749C22.1815 48.6313 23.0717 49 24 49ZM24 63C24.9283 63 25.8185 62.6313 26.4749 61.9749C27.1313 61.3185 27.5 60.4283 27.5 59.5C27.5 58.5717 27.1313 57.6815 26.4749 57.0251C25.8185 56.3687 24.9283 56 24 56C23.0717 56 22.1815 56.3687 21.5251 57.0251C20.8687 57.6815 20.5 58.5717 20.5 59.5C20.5 60.4283 20.8687 61.3185 21.5251 61.9749C22.1815 62.6313 23.0717 63 24 63Z" fill="#EA6D27"/>
</svg>
